<?xml version="1.0" standalone="no"?><!DOCTYPE svg PUBLIC "-//W3C//DTD SVG 1.1//EN" "http://www.w3.org/Graphics/SVG/1.1/DTD/svg11.dtd"><svg t="1722259198706" class="icon" viewBox="0 0 1024 1024" version="1.1" xmlns="http://www.w3.org/2000/svg" p-id="4701" xmlns:xlink="http://www.w3.org/1999/xlink" width="200" height="200"><path d="M969.142857 146.285714H301.714286c-5.028571 0-9.142857 4.114286-9.142857 9.142857v64c0 5.028571 4.114286 9.142857 9.142857 9.142858h667.428571c5.028571 0 9.142857-4.114286 9.142857-9.142858v-64c0-5.028571-4.114286-9.142857-9.142857-9.142857z m0 324.571429H301.714286c-5.028571 0-9.142857 4.114286-9.142857 9.142857v64c0 5.028571 4.114286 9.142857 9.142857 9.142857h667.428571c5.028571 0 9.142857-4.114286 9.142857-9.142857v-64c0-5.028571-4.114286-9.142857-9.142857-9.142857z m0 324.571428H301.714286c-5.028571 0-9.142857 4.114286-9.142857 9.142858v64c0 5.028571 4.114286 9.142857 9.142857 9.142857h667.428571c5.028571 0 9.142857-4.114286 9.142857-9.142857v-64c0-5.028571-4.114286-9.142857-9.142857-9.142858zM45.714286 187.428571a63.998857 63.998857 0 1 0 127.997714 0A63.998857 63.998857 0 0 0 45.714286 187.428571z m0 324.571429a63.998857 63.998857 0 1 0 127.997714 0A63.998857 63.998857 0 0 0 45.714286 512z m0 324.571429a63.998857 63.998857 0 1 0 127.997714 0A63.998857 63.998857 0 0 0 45.714286 836.571429z" p-id="4702"></path></svg>